<svg width="47" height="47" viewBox="0 0 47 47" fill="none" xmlns="http://www.w3.org/2000/svg">
<g clip-path="url(#clip0_35_165)">
<path fill-rule="evenodd" clip-rule="evenodd" d="M43.0833 13.7082C43.0833 8.30121 38.6986 3.9165 33.2917 3.9165C27.3109 3.9165 19.6891 3.9165 13.7083 3.9165C8.30137 3.9165 3.91666 8.30121 3.91666 13.7082C3.91666 19.6889 3.91666 27.3108 3.91666 33.2915C3.91666 38.6985 8.30137 43.0832 13.7083 43.0832C19.6891 43.0832 27.3109 43.0832 33.2917 43.0832C38.6986 43.0832 43.0833 38.6985 43.0833 33.2915C43.0833 27.3108 43.0833 19.6889 43.0833 13.7082Z" fill="url(#paint0_radial_35_165)"/>
<path d="M29.2928 9.8013C33.3876 9.84046 37.1574 13.3557 37.1985 17.7071C37.2123 21.5689 37.2123 25.4308 37.1985 29.2926C37.1594 33.3718 33.6442 37.1573 29.2928 37.1984C25.4309 37.2121 21.5691 37.2121 17.7073 37.1984C13.6104 37.1592 9.84258 33.644 9.80146 29.2926C9.78775 25.4308 9.78775 21.5689 9.80146 17.7071C9.83867 13.6083 13.346 9.84242 17.7073 9.8013C21.5691 9.78759 25.4309 9.78759 29.2928 9.8013ZM17.7601 11.6519C14.5818 11.6617 11.6834 14.4171 11.6521 17.7188C11.6403 21.5728 11.6403 25.4268 11.6521 29.2808C11.6815 32.424 14.3703 35.3164 17.719 35.3478C21.573 35.3595 25.427 35.3595 29.281 35.3478C32.432 35.3184 35.3166 32.6296 35.3479 29.2808C35.3597 25.4268 35.3597 21.5728 35.3479 17.7188C35.3185 14.5542 32.5769 11.6833 29.281 11.6519C25.4407 11.6402 21.6004 11.6519 17.7601 11.6519Z" fill="white"/>
<path d="M23.547 16.646C26.7156 16.6754 29.6688 19.1194 30.2484 22.2507C30.6616 24.4832 29.8822 26.9037 28.2372 28.4743C26.4062 30.2172 23.5725 30.84 21.1441 29.9509C18.4299 28.958 16.5205 26.0969 16.6478 23.1986C16.8025 19.7362 19.8614 16.6577 23.5 16.646C23.5157 16.646 23.5313 16.646 23.547 16.646ZM23.4687 18.5005C21.2068 18.5221 19.0742 20.2376 18.6042 22.4662C18.1283 24.7202 19.4247 27.221 21.5534 28.1199C23.878 29.103 26.8801 28.0004 28.0022 25.7052C29.1635 23.3337 28.0688 20.1122 25.617 18.9666C24.9492 18.6552 24.207 18.4986 23.4687 18.5005Z" fill="white"/>
<path fill-rule="evenodd" clip-rule="evenodd" d="M32.3125 16.1112C32.3125 15.7333 32.1617 15.371 31.8954 15.1046C31.629 14.8383 31.2667 14.6875 30.8888 14.6875C30.8594 14.6875 30.8281 14.6875 30.7987 14.6875C30.4208 14.6875 30.0585 14.8383 29.7921 15.1046C29.5258 15.371 29.375 15.7333 29.375 16.1112C29.375 16.1269 29.375 16.1406 29.375 16.1562C29.375 16.546 29.5297 16.92 29.8058 17.1942C30.08 17.4703 30.454 17.625 30.8438 17.625C31.6545 17.625 32.3125 16.967 32.3125 16.1562C32.3125 16.1406 32.3125 16.1269 32.3125 16.1112Z" fill="white"/>
</g>
<defs>
<radialGradient id="paint0_radial_35_165" cx="0" cy="0" r="1" gradientUnits="userSpaceOnUse" gradientTransform="translate(3.91666 42.104) scale(54.7021)">
<stop stop-color="#FF8100"/>
<stop offset="0.19" stop-color="#FF7209"/>
<stop offset="0.32" stop-color="#F55E16"/>
<stop offset="0.48" stop-color="#D92938"/>
<stop offset="1" stop-color="#9100FF"/>
</radialGradient>
<clipPath id="clip0_35_165">
<rect width="47" height="47" fill="white"/>
</clipPath>
</defs>
</svg>
