<svg width="60" height="54" viewBox="0 0 60 54" fill="none" xmlns="http://www.w3.org/2000/svg">
<g clip-path="url(#clip0_1_3)">
<path d="M20.5955 1.1422C19.2412 0.156143 16.0255 -1.42883 15.4991 2.67623C13.6091 13.2933 0 20.7132 0 31.1811C0 40.0048 8.53425 47.158 19.0619 47.158C29.5893 47.158 38.1236 40.0048 38.1236 31.1811C38.1234 23.1752 34.2896 11.1132 20.5955 1.1422ZM11.6064 39.655C11.3111 39.9862 10.8592 40.1614 10.402 40.1614C10.0925 40.1614 9.78045 40.0813 9.51218 39.9149C9.34454 39.8108 5.39414 37.3112 4.54263 32.5865C3.69131 27.8629 7.50767 23.4362 7.67063 23.25C8.16106 22.6894 9.10128 22.5677 9.77068 22.9795C10.4389 23.3905 10.5839 24.1773 10.0948 24.7382C10.0454 24.7953 6.85155 28.5367 7.51393 32.2105C8.17396 35.8737 11.2744 37.8744 11.3057 37.8942C11.9657 38.3121 12.1017 39.1 11.6064 39.655Z" fill="#0066CB"/>
<path d="M11.3059 37.8942C11.2747 37.8744 8.1742 35.8738 7.51417 32.2105C6.8518 28.5367 10.0456 24.7954 10.0951 24.7382C10.5841 24.1773 10.4392 23.3905 9.77093 22.9795C9.10152 22.5679 8.16131 22.6894 7.67088 23.25C7.50792 23.4362 3.69156 27.8629 4.54287 32.5866C5.39419 37.3112 9.34459 39.8108 9.51243 39.9149C9.7807 40.0813 10.0927 40.1614 10.4022 40.1614C10.8594 40.1614 11.3114 39.9863 11.6066 39.655C12.1017 39.1 11.9657 38.3121 11.3059 37.8942Z" fill="white"/>
<path d="M49.9973 27.6794C49.2244 27.1165 47.3893 26.212 47.089 28.5549C46.0104 34.6138 38.2437 38.8482 38.2437 44.8219C38.2437 49.8575 43.1141 53.9398 49.1222 53.9398C55.1299 53.9398 60 49.8575 60 44.8219C60 40.2532 57.8122 33.3696 49.9973 27.6794ZM44.8674 49.6578C44.699 49.8468 44.4412 49.9469 44.18 49.9469C44.0036 49.9469 43.8254 49.9012 43.6722 49.8062C43.5764 49.7468 41.322 48.3202 40.8363 45.624C40.3505 42.9284 42.5284 40.402 42.6212 40.2959C42.9012 39.9759 43.4379 39.9066 43.8197 40.1415C44.2011 40.3762 44.2839 40.8251 44.0049 41.1451C43.9764 41.1778 42.1538 43.3129 42.5319 45.4095C42.9088 47.5 44.6777 48.6418 44.6958 48.6531C45.0723 48.8914 45.1499 49.3411 44.8674 49.6578Z" fill="#0066CB"/>
<path d="M44.6961 48.653C44.6779 48.6417 42.9091 47.4999 42.5321 45.4094C42.1541 43.3129 43.9767 41.1777 44.0052 41.1449C44.2842 40.8249 44.2014 40.3759 43.82 40.1414C43.4382 39.9065 42.9014 39.9758 42.6214 40.2958C42.5286 40.4019 40.3508 42.9282 40.8366 45.6239C41.3221 48.32 43.5765 49.7466 43.6725 49.8061C43.8254 49.9011 44.0036 49.9468 44.1803 49.9468C44.4415 49.9468 44.699 49.8469 44.8676 49.6577C45.15 49.3411 45.0724 48.8914 44.6961 48.653Z" fill="white"/>
</g>
<defs>
<clipPath id="clip0_1_3">
<rect width="60" height="54" fill="white"/>
</clipPath>
</defs>
</svg>
