<svg width="106" height="105" viewBox="0 0 106 105" fill="none" xmlns="http://www.w3.org/2000/svg">
<path d="M88.8909 32.8125H17.1091C14.3285 32.8125 11.6619 33.9066 9.69571 35.8542C7.72957 37.8018 6.625 40.4433 6.625 43.1977V44.2969C6.625 44.732 6.7995 45.1493 7.1101 45.457C7.42071 45.7647 7.84199 45.9375 8.28125 45.9375H99.375V43.1977C99.375 40.4433 98.2704 37.8018 96.3043 35.8542C94.3381 33.9066 91.6715 32.8125 88.8909 32.8125Z" fill="#0057BA"/>
<path d="M97.3378 59.0625H8.66219C8.12189 59.0625 7.60373 59.2751 7.22168 59.6536C6.83963 60.032 6.625 60.5453 6.625 61.0805V88.0523C6.625 90.8067 7.72957 93.4482 9.69571 95.3958C11.6619 97.3433 14.3285 98.4375 17.1091 98.4375H88.8909C91.6715 98.4375 94.3381 97.3433 96.3043 95.3958C98.2704 93.4482 99.375 90.8067 99.375 88.0523V61.0805C99.375 60.5453 99.1604 60.032 98.7783 59.6536C98.3963 59.2751 97.8781 59.0625 97.3378 59.0625ZM62.9375 65.625H72.6928C73.507 65.5935 74.3059 65.8504 74.9463 66.3494C75.5867 66.8485 76.0267 67.5572 76.1875 68.3484C76.2703 68.8236 76.2464 69.311 76.1174 69.7759C75.9884 70.2409 75.7576 70.672 75.4414 71.0385C75.1251 71.405 74.7312 71.698 74.2876 71.8966C73.844 72.0952 73.3617 72.1945 72.875 72.1875H63.1197C62.3055 72.219 61.5066 71.9621 60.8662 71.4631C60.2258 70.964 59.7858 70.2553 59.625 69.4641C59.5422 68.9889 59.5661 68.5015 59.6951 68.0366C59.8241 67.5716 60.0549 67.1405 60.3711 66.774C60.6874 66.4075 61.0813 66.1145 61.5249 65.9159C61.9685 65.7173 62.4508 65.618 62.9375 65.625ZM49.4722 77.5687C49.1359 79.0816 48.444 80.4944 47.4526 81.6924C46.4613 82.8904 45.1985 83.8398 43.767 84.4633C42.3354 85.0867 40.7755 85.3668 39.2142 85.2806C37.6528 85.1944 36.134 84.7444 34.7812 83.9672C33.4167 84.7477 31.8844 85.1956 30.3107 85.274C28.737 85.3523 27.1671 85.0589 25.7305 84.4178C24.2938 83.7768 23.0316 82.8066 22.0481 81.5872C21.0645 80.3678 20.3878 78.9342 20.0737 77.4047C19.7846 75.9767 19.8189 74.5028 20.1743 73.0895C20.5297 71.6763 21.1972 70.3587 22.1288 69.2318C23.0604 68.105 24.2329 67.197 25.5616 66.5733C26.8903 65.9496 28.3421 65.6257 29.8125 65.625C31.56 65.6284 33.275 66.0927 34.7812 66.9703C36.4485 66.0135 38.3607 65.5575 40.2849 65.6577C42.2091 65.758 44.0624 66.4102 45.6191 67.535C47.1758 68.6598 48.3689 70.2087 49.053 71.9931C49.7371 73.7774 49.8827 75.7203 49.4722 77.5852V77.5687ZM65.2894 84.3445C64.9812 84.6516 64.6147 84.8952 64.2111 85.0614C63.8075 85.2275 63.3746 85.3128 62.9375 85.3125C62.2844 85.3098 61.6466 85.1159 61.1045 84.7551C60.5623 84.3944 60.1398 83.883 59.8903 83.2851C59.6407 82.6872 59.5751 82.0296 59.7018 81.3949C59.8285 80.7602 60.1417 80.1768 60.6022 79.718C61.2356 79.1249 62.0742 78.7945 62.9458 78.7945C63.8174 78.7945 64.6559 79.1249 65.2894 79.718C65.9063 80.3328 66.2526 81.1644 66.2526 82.0312C66.2526 82.8981 65.9063 83.7297 65.2894 84.3445ZM82.8125 85.3125H73.0572C72.243 85.344 71.4441 85.0871 70.8037 84.5881C70.1633 84.089 69.7233 83.3803 69.5625 82.5891C69.4797 82.1139 69.5036 81.6265 69.6326 81.1616C69.7616 80.6966 69.9924 80.2655 70.3086 79.899C70.6249 79.5325 71.0188 79.2395 71.4624 79.0409C71.906 78.8423 72.3883 78.743 72.875 78.75H82.6303C83.4445 78.7185 84.2434 78.9754 84.8838 79.4744C85.5242 79.9735 85.9642 80.6822 86.125 81.4734C86.2078 81.9486 86.1839 82.436 86.0549 82.9009C85.9259 83.3659 85.6951 83.797 85.3789 84.1635C85.0626 84.53 84.6687 84.823 84.2251 85.0216C83.7815 85.2202 83.2992 85.3195 82.8125 85.3125ZM85.1478 71.2195C85.0016 71.3778 84.8345 71.5158 84.6509 71.6297C84.4765 71.7555 84.2874 71.8602 84.0878 71.9414C83.8859 72.0258 83.6746 72.0863 83.4584 72.1219C83.2465 72.1691 83.0297 72.1911 82.8125 72.1875C81.934 72.1875 81.0914 71.8418 80.4702 71.2264C79.849 70.6111 79.5 69.7765 79.5 68.9062C79.4755 68.6937 79.4755 68.479 79.5 68.2664C79.5425 68.0591 79.6035 67.856 79.6822 67.6594C79.7669 67.4578 79.8724 67.2654 79.9969 67.0852C80.1115 66.9031 80.2508 66.7375 80.4109 66.593C80.557 66.4345 80.7242 66.2965 80.9078 66.1828C81.0901 66.0601 81.2843 65.9556 81.4875 65.8711C81.6835 65.7862 81.8893 65.7256 82.1003 65.6906C82.5268 65.6066 82.9657 65.6066 83.3922 65.6906C83.608 65.7277 83.8191 65.7882 84.0216 65.8711C84.2178 65.9592 84.4061 66.0635 84.5847 66.1828C84.7683 66.2965 84.9355 66.4345 85.0816 66.593C85.4016 66.8908 85.6586 67.2487 85.8378 67.6458C86.0169 68.043 86.1145 68.4714 86.125 68.9062C86.1213 69.7751 85.7699 70.607 85.1478 71.2195Z" fill="#0057BA"/>
<path d="M65.72 7.77655L33.4231 26.25H87.0856L78.2578 11.107C77.0385 9.02112 75.0341 7.49921 72.6838 6.8749C70.3336 6.2506 67.8293 6.57484 65.72 7.77655Z" fill="#0057BA"/>
</svg>
