<svg width="115" height="115" viewBox="0 0 115 115" fill="none" xmlns="http://www.w3.org/2000/svg">
<path d="M76.1426 69.0854C75.519 68.1842 74.7114 67.4255 73.7729 66.8595C72.7302 66.2257 71.5835 65.7816 70.3858 65.5478V55.1079C70.7088 55.2222 71.0159 55.3769 71.3 55.5684C71.8439 55.9322 72.332 56.3733 72.7487 56.8779C73.1181 57.327 73.4021 57.8401 73.5865 58.3917C73.7691 58.9494 73.8888 59.5257 73.9436 60.11C74.0694 61.2577 74.9185 61.5879 75.5766 61.516C75.9359 61.4711 76.8007 61.2353 77.0747 59.8C77.0208 57.5068 76.2796 55.6425 74.869 54.2544C73.6387 53.0515 72.0723 52.2503 70.3768 51.9567V50.3282C70.3801 50.0657 70.3244 49.8057 70.214 49.5675C70.1037 49.3292 69.9413 49.1187 69.739 48.9514C69.4016 48.6629 68.9694 48.5094 68.5257 48.5206C68.0819 48.5318 67.658 48.7069 67.3356 49.012C67.1598 49.1821 67.0214 49.387 66.9293 49.6137C66.8373 49.8403 66.7936 50.0837 66.8011 50.3282V51.7568C65.7472 51.8548 64.7105 52.0896 63.7172 52.4553C62.5756 52.8609 61.5313 53.5005 60.6513 54.333C59.8293 55.1149 59.1844 56.0638 58.7601 57.1159C58.3366 58.2058 58.1751 59.3798 58.2884 60.5435C58.4828 62.6144 59.4693 64.5303 61.0421 65.8914C62.5447 67.147 64.5348 67.9129 66.8011 68.1555V78.1484C64.9795 77.9732 63.5555 77.5015 62.5537 76.7423C61.397 75.8686 60.6827 74.8196 60.393 73.6292C60.3121 72.9913 59.8404 72.3018 58.787 72.2816C58.5567 72.2567 58.3238 72.2858 58.1067 72.3665C57.8895 72.4472 57.6941 72.5773 57.5359 72.7465C57.399 72.9155 57.3051 73.1151 57.2621 73.3282C57.219 73.5414 57.2282 73.7618 57.2889 73.9706C57.7246 76.2998 58.9218 78.1034 60.8534 79.341C62.5245 80.3877 64.5213 81.0121 66.8011 81.2008V82.499C66.7871 82.7548 66.8313 83.0105 66.9305 83.2467C67.0298 83.4828 67.1813 83.6934 67.3738 83.8624C67.6996 84.1421 68.1147 84.2959 68.544 84.2959C68.9689 84.2927 69.3809 84.1499 69.7165 83.8894C69.929 83.7271 70.0993 83.516 70.2131 83.274C70.3268 83.032 70.3807 82.7662 70.3701 82.499V81.1514C72.5578 80.8594 74.2244 80.0935 75.334 78.8716C76.5603 77.5239 77.2387 76.0236 77.3555 74.4468C77.4295 73.5667 77.3796 72.6806 77.2072 71.8144C77.0403 70.8422 76.6781 69.9138 76.1426 69.0854ZM66.8101 65.0424C66.0586 64.9184 65.3278 64.6916 64.6381 64.3686C63.9527 64.0434 63.321 63.6155 62.7648 63.0995C62.3879 62.7531 62.0925 62.3274 61.9001 61.853C61.7353 61.3751 61.6253 60.88 61.5722 60.3773C61.5236 59.6671 61.6276 58.9547 61.8771 58.288C62.1266 57.6213 62.5158 57.0156 63.0187 56.5117C63.9036 55.5908 65.1771 55.0181 66.8101 54.807V65.0424ZM74.2693 74.3637C74.2507 74.6876 74.1817 75.0066 74.0649 75.3093C73.9223 75.7387 73.7048 76.1394 73.4226 76.493C73.0239 76.9424 72.5447 77.3134 72.0098 77.5868C71.4998 77.8431 70.9512 78.0139 70.3858 78.0922V68.7305C71.6392 69.0921 72.5623 69.6154 73.1822 70.3207C73.9549 71.2192 74.3053 72.5354 74.2693 74.3457V74.3637Z" fill="#0057BA"/>
<path d="M111.263 70.8508V61.963L100.798 59.9707C99.9174 55.2326 98.056 50.731 95.3332 46.7547L101.324 37.959L95.0345 31.6699L86.25 37.6715C82.2729 34.9507 77.7715 33.0902 73.034 32.209L71.0462 21.7422H62.1562L60.1706 32.209C55.433 33.0897 50.9315 34.9503 46.9546 37.6715L38.1589 31.6834L31.8698 37.9725L37.8602 46.7682C35.1414 50.7409 33.2823 55.2378 32.4022 59.9707L21.9354 61.9562V70.844L32.4022 72.8296C33.2834 77.5671 35.1439 82.0684 37.8647 86.0456L31.8743 94.8391L38.1634 101.128L46.9591 95.14C50.936 97.8612 55.4375 99.7218 60.1751 100.603L62.1607 111.067H71.0462L73.034 100.603C77.7713 99.722 82.2727 97.8623 86.25 95.1423L95.0435 101.13L101.333 94.8413L95.3422 86.0478C98.0645 82.0713 99.9259 77.5698 100.807 72.8318L111.263 70.8508ZM66.5989 88.8308C62.1637 88.8308 57.828 87.5156 54.1403 85.0515C50.4525 82.5874 47.5782 79.0851 45.8809 74.9874C44.1836 70.8898 43.7396 66.3809 44.6048 62.0309C45.4701 57.6808 47.6059 53.6851 50.7421 50.5489C53.8783 47.4127 57.874 45.2769 62.224 44.4116C66.5741 43.5464 71.083 43.9905 75.1806 45.6878C79.2782 47.3851 82.7805 50.2593 85.2446 53.9471C87.7087 57.6349 89.0239 61.9705 89.0239 66.4058C89.0242 69.3507 88.4444 72.2669 87.3175 74.9878C86.1907 77.7086 84.5389 80.1809 82.4565 82.2633C80.3741 84.3457 77.9018 85.9975 75.181 87.1244C72.4601 88.2512 69.5439 88.8311 66.5989 88.8308Z" fill="#0057BA"/>
<path d="M28.5478 55.9704C29.369 52.9882 30.543 50.1146 32.045 47.4105C29.6217 47.0374 27.3486 46.0021 25.4764 44.419C23.6042 42.8359 22.2057 40.7664 21.435 38.4388C20.6644 36.1112 20.5517 33.616 21.1092 31.2284C21.6668 28.8408 22.873 26.6536 24.5948 24.9081C26.3166 23.1625 28.4871 21.9265 30.8668 21.3363C33.2465 20.7461 35.7431 20.8247 38.081 21.5634C40.4189 22.3021 42.5073 23.6721 44.1159 25.5225C45.7246 27.3729 46.7908 29.6316 47.1972 32.0495C50.0208 30.4484 53.0337 29.2071 56.1658 28.3547L56.4735 26.733C55.7929 24.6764 54.8307 22.7239 53.6142 20.9313L57.6842 14.9545L53.4166 10.6869L47.4375 14.7546C44.7345 12.9038 41.6741 11.6391 38.4531 11.0418L37.1055 3.93066H31.068L29.7203 11.0418C26.4994 11.6394 23.4391 12.9041 20.7359 14.7546L14.7613 10.6847L10.4937 14.9522L14.5614 20.9313C12.7109 23.6345 11.4463 26.6948 10.8486 29.9157L3.73749 31.2634V37.3031L10.8486 38.6508C11.4459 41.8718 12.7106 44.9322 14.5614 47.6352L10.4915 53.6075L14.7591 57.8751L20.7359 53.8052C22.3602 54.9053 24.1162 55.7972 25.9626 56.4601L28.5478 55.9704Z" fill="#0057BA"/>
</svg>
