<svg width="119" height="119" viewBox="0 0 119 119" fill="none" xmlns="http://www.w3.org/2000/svg">
<path d="M96.6888 36.5563C101.263 28.843 95.4871 19.1868 86.7364 19.3098C86.8507 10.5 77.1708 4.74356 69.4718 9.35656C67.4563 5.80032 63.6758 3.53058 59.4922 3.53058C55.3231 3.53058 51.5499 5.79578 49.5325 9.34384C41.8164 4.74732 32.1538 10.5122 32.2679 19.3098C23.4914 19.2009 17.756 28.8135 22.3301 36.5517C18.7747 38.5536 16.505 42.3278 16.505 46.5186C16.505 50.7131 18.7675 54.4909 22.3156 56.4982C17.8494 64.0024 23.155 73.7429 32.2716 73.7429C32.2479 76.2955 33.1268 78.8096 34.7217 80.8656C34.7119 80.8633 34.7014 80.8616 34.6916 80.8593C28.5369 89.9889 21.8804 98.9139 18.1803 108.917C18.1059 109.066 18.2546 109.196 18.3848 109.103C22.6056 106.667 27.1982 104.362 31.9955 102.131C32.0884 102.093 32.2 102.131 32.2 102.242C33.0367 106.519 34.0407 110.87 35.4353 115.369C35.4725 115.5 35.677 115.5 35.7328 115.388C39.4866 105.274 46.2379 96.2492 52.4394 87.0543C55.3875 89.3575 59.2832 90.2809 63.2639 88.8811C69.1206 97.4475 75.2281 105.939 78.7401 115.388C78.7773 115.5 78.9818 115.5 79.019 115.369C80.4135 110.87 81.4362 106.519 82.2543 102.242C82.2543 102.131 82.3845 102.093 82.4588 102.131C87.2747 104.362 91.8674 106.667 96.0881 109.103C96.1996 109.196 96.3484 109.066 96.2926 108.917C92.9016 99.8802 87.1486 91.7001 81.5111 83.4614C84.8346 81.2933 86.7813 77.6269 86.7346 73.742C95.513 73.9175 101.273 64.1454 96.6979 56.4937C104.427 52.1143 104.431 40.9251 96.6888 36.5563ZM93.5148 53.8626L92.5669 54.0724C92.4574 54.6178 91.4799 55.846 92.5978 57.1828C97.5376 62.6541 92.5669 71.3977 85.2856 69.8598C83.5161 69.4207 82.8116 71.2383 82.4438 71.5675L82.8869 72.46C84.2357 79.7756 75.5546 84.5074 70.1055 79.5779C68.8223 78.5038 67.4488 79.5591 67.0168 79.6524L66.8244 80.5721C64.3668 87.6179 54.5068 87.435 52.1636 80.5657L51.9475 79.6179L50.9343 79.2402C50.2407 78.9823 49.469 79.1231 48.8534 79.6396C45.8521 82.3331 40.9007 82.4076 37.8824 78.9188C36.3135 77.103 35.6671 74.6517 36.141 72.3438C36.3263 71.701 36.181 71.0037 35.7325 70.4889L34.7447 69.512L33.6716 69.8698C26.4089 71.3365 21.456 62.6703 26.4574 57.1265C26.9368 56.5509 27.0748 55.7683 26.8188 55.0837L26.3303 53.9843L25.417 53.8372C22.3047 52.7486 20.2238 49.8261 20.2238 46.5186C20.2238 43.1775 22.3628 40.2269 25.5622 39.1728C27.1474 38.6366 26.9306 36.9695 27.0602 36.6007L26.412 35.8799C21.4183 30.3093 26.571 21.6536 33.7169 23.1974C35.4869 23.6345 36.2028 21.7914 36.5605 21.467L36.1174 20.5754C34.7965 13.4422 43.3399 8.48966 48.8534 13.4394L49.0622 13.6001C49.656 13.9986 50.3932 14.0704 51.0414 13.788L52.0583 13.2705L52.1945 12.428C53.304 9.32389 56.2183 7.24933 59.4922 7.24933C62.8151 7.24933 65.7621 9.37381 66.8425 12.5406L67.0513 13.4194C67.5374 13.5453 68.6746 14.4776 69.9439 13.621L70.1563 13.4557C72.6494 11.2032 76.2629 10.8201 79.1536 12.5024C81.9917 14.1548 83.5079 17.5131 82.8651 20.6971C82.4107 22.27 83.9142 23.0621 84.2651 23.5497L85.3418 23.1857C92.5518 21.6883 97.4916 30.4125 92.6631 35.8064C91.4798 36.9896 92.4137 38.4119 92.467 38.8505L93.4584 39.1774C100.517 41.5035 100.546 51.4846 93.5148 53.8626Z" fill="#0057BA"/>
<path d="M59.4956 20.3739C45.0482 20.3739 33.3342 32.0879 33.3342 46.5353C33.3342 60.9826 45.0482 72.6967 59.4956 72.6967C73.943 72.6967 85.6756 60.9826 85.6756 46.5353C85.6756 32.0879 73.943 20.3739 59.4956 20.3739ZM76.3415 42.7235L68.1045 50.8491C68.0673 50.8862 68.0673 50.9234 68.0673 50.9607L70.0941 62.3585C70.1127 62.4702 70.0197 62.5259 69.9267 62.4887L59.6444 57.1523C59.6072 57.1337 59.5699 57.1337 59.5328 57.1523L49.3063 62.6189C49.2318 62.6561 49.1202 62.5817 49.1389 62.4887L51.0355 51.0536C51.0355 51.0164 51.0168 50.9791 50.9982 50.9606L42.6497 42.9281C42.5939 42.8537 42.6124 42.7421 42.724 42.7235L54.1778 40.9943C54.215 40.9757 54.2335 40.9572 54.2521 40.92L59.3283 30.5075C59.3654 30.4144 59.4956 30.4144 59.5328 30.5075L64.7204 40.8641C64.7391 40.9013 64.7763 40.92 64.8134 40.92L76.2858 42.519C76.3788 42.5376 76.4159 42.6492 76.3415 42.7235Z" fill="#0057BA"/>
</svg>
