<svg width="73" height="90" viewBox="0 0 73 90" fill="none" xmlns="http://www.w3.org/2000/svg">
<path fill-rule="evenodd" clip-rule="evenodd" d="M15 57.5H37.5V53.75H15V57.5ZM15 46.25H50V42.5H15V46.25ZM15 35H50V31.25H15V35ZM15 23.75H50V20H15V23.75ZM17.5 77.5775L12.4425 72.5H17.5V77.5775ZM25 68.75C25 67.7554 24.6049 66.8016 23.9016 66.0983C23.1984 65.3951 22.2446 65 21.25 65H7.5V7.5H57.5V47.5H65V7.5C65 3.365 61.635 0 57.5 0H7.5C3.365 0 0 3.365 0 7.5V67.6125C0 69.565 0.722501 71.365 2.03 72.675L17.1825 87.8875C18.5256 89.2314 20.345 89.9906 22.245 90H47.5V82.5H25V68.75ZM61.25 66.25C59.1825 66.25 57.5 64.5675 57.5 62.5C57.5 60.4325 59.1825 58.75 61.25 58.75C63.3175 58.75 65 60.4325 65 62.5C65 64.5675 63.3175 66.25 61.25 66.25ZM72.5 62.5C72.5 56.2975 67.4525 51.25 61.25 51.25C58.2673 51.2533 55.4078 52.4396 53.2987 54.5487C51.1896 56.6578 50.0033 59.5173 50 62.5C50 66.9775 52.6475 70.82 56.4425 72.63L51.4425 87.6275L58.5575 90L61.25 81.9225L63.9425 90L71.0575 87.6275L66.0575 72.63C69.8525 70.82 72.5 66.9775 72.5 62.5Z" fill="#0057BA"/>
</svg>
