<svg width="20" height="19" viewBox="0 0 20 19" fill="none" xmlns="http://www.w3.org/2000/svg">
<path d="M19.4145 15.145L19.32 14.86C19.096 14.1941 18.3618 13.4997 17.6874 13.3167L15.1912 12.6347C14.5142 12.4505 13.5486 12.6981 13.0534 13.1935L12.1499 14.0971C8.86672 13.2097 6.29216 10.6346 5.40619 7.35143L6.30964 6.44781C6.80492 5.95244 7.05251 4.98792 6.86835 4.31087L6.18768 1.81299C6.00351 1.13717 5.30791 0.402889 4.64345 0.181334L4.3585 0.0855109C3.69276 -0.136044 2.74331 0.08802 2.24808 0.583343L0.896693 1.93621C0.655269 2.17641 0.50097 2.86341 0.50097 2.86592C0.453704 7.15724 2.13607 11.2917 5.17101 14.3273C8.19851 17.3553 12.3167 19.0355 16.5948 18.9994C16.6172 18.9994 17.324 18.8476 17.5654 18.6073L18.9168 17.2557C19.412 16.7604 19.636 15.8108 19.4145 15.145Z" fill="black"/>
</svg>
