<svg width="240" height="240" viewBox="0 0 240 240" fill="none" xmlns="http://www.w3.org/2000/svg">
<path d="M109.688 140.517C104.159 140.521 98.7305 139.037 93.9718 136.222C89.2132 133.407 85.2991 129.364 82.6396 124.517C79.9802 119.67 78.6732 114.196 78.8557 108.67C79.0381 103.145 80.7032 97.7694 83.6766 93.108C84.1453 92.344 84.6938 91.5893 85.2469 90.8768C85.6453 90.3565 86.0672 89.8455 86.5078 89.3487C86.9484 88.8518 87.4031 88.3596 87.8766 87.8862C88.4113 87.4011 89.1121 87.1402 89.8338 87.1575C90.5556 87.1749 91.243 87.4691 91.7538 87.9793C92.2646 88.4895 92.5597 89.1766 92.5779 89.8984C92.5961 90.6201 92.336 91.3212 91.8516 91.8565C91.4625 92.2502 91.0875 92.6533 90.7266 93.0612C90.3656 93.469 90.0281 93.8815 89.7 94.308C89.2313 94.894 88.8141 95.508 88.4156 96.1362C85.5792 100.589 84.2121 105.82 84.5072 111.091C84.8022 116.363 86.7446 121.409 90.0603 125.517C93.376 129.626 97.8977 132.59 102.988 133.992C108.078 135.393 113.48 135.162 118.431 133.33C123.383 131.498 127.634 128.157 130.586 123.78C133.538 119.403 135.042 114.209 134.885 108.932C134.728 103.655 132.918 98.56 129.711 94.3661C126.504 90.1722 122.061 87.0908 117.009 85.5565C116.129 85.2925 115.236 85.075 114.333 84.9049C113.329 84.7173 112.315 84.5905 111.295 84.5252C110.55 84.4737 109.795 84.4596 109.05 84.4783C108.305 84.4971 107.616 84.544 106.913 84.6237C105.86 84.7375 104.816 84.9175 103.786 85.1627C103.426 85.2483 103.054 85.2622 102.689 85.2037C102.324 85.1452 101.974 85.0153 101.659 84.8216C101.024 84.4305 100.57 83.8028 100.397 83.0768C100.224 82.3507 100.347 81.5858 100.738 80.9502C101.129 80.3147 101.757 79.8605 102.483 79.6877C103.74 79.3879 105.014 79.1672 106.298 79.0268C107.156 78.933 108.038 78.8768 108.909 78.8533C109.781 78.8299 110.747 78.8533 111.656 78.9049C112.902 78.9883 114.142 79.1448 115.369 79.3737C122.924 80.786 129.68 84.9696 134.312 91.1042C138.943 97.2388 141.116 104.882 140.405 112.536C139.694 120.189 136.15 127.301 130.467 132.478C124.785 137.654 117.374 140.521 109.688 140.517Z" fill="white"/>
<path d="M158.316 161.147C157.946 161.145 157.58 161.071 157.239 160.928C156.898 160.784 156.588 160.575 156.328 160.312L128.78 132.759C128.295 132.224 128.035 131.523 128.053 130.801C128.072 130.079 128.367 129.392 128.877 128.882C129.388 128.372 130.076 128.078 130.797 128.06C131.519 128.043 132.22 128.304 132.755 128.789L160.312 156.351C160.704 156.745 160.97 157.246 161.077 157.79C161.185 158.334 161.129 158.899 160.916 159.411C160.704 159.924 160.344 160.362 159.883 160.671C159.422 160.98 158.88 161.145 158.325 161.147H158.316Z" fill="white"/>
<path d="M119.208 112.5H100.134C99.3884 112.5 98.6731 112.204 98.1456 111.676C97.6182 111.149 97.3219 110.433 97.3219 109.688C97.3219 108.942 97.6182 108.226 98.1456 107.699C98.6731 107.171 99.3884 106.875 100.134 106.875H119.208C119.954 106.875 120.669 107.171 121.197 107.699C121.724 108.226 122.02 108.942 122.02 109.688C122.02 110.433 121.724 111.149 121.197 111.676C120.669 112.204 119.954 112.5 119.208 112.5Z" fill="white"/>
<path d="M109.688 122.039C108.942 122.039 108.226 121.743 107.699 121.215C107.171 120.688 106.875 119.972 106.875 119.226V100.158C106.875 99.4118 107.171 98.6964 107.699 98.169C108.226 97.6415 108.942 97.3452 109.688 97.3452C110.433 97.3452 111.149 97.6415 111.676 98.169C112.204 98.6964 112.5 99.4118 112.5 100.158V119.231C112.499 119.976 112.202 120.69 111.675 121.217C111.147 121.743 110.433 122.039 109.688 122.039Z" fill="white"/>
</svg>
