<svg width="42" height="34" viewBox="0 0 42 34" fill="none" xmlns="http://www.w3.org/2000/svg">
<path d="M38.0381 0.342462C32.6244 2.5847 9.41084 12.2 2.99696 14.8207C-1.30448 16.4993 1.21364 18.0731 1.21364 18.0731C1.21364 18.0731 4.88544 19.332 8.0332 20.2762C11.1805 21.2205 12.8591 20.1715 12.8591 20.1715L27.6519 10.2046C32.8976 6.63754 31.6388 9.57498 30.3795 10.8343C27.6519 13.5623 23.1406 17.8633 19.3636 21.3256C17.685 22.7943 18.5241 24.0532 19.2589 24.6828C21.9865 26.9911 29.4357 31.7123 29.855 32.0269C32.0713 33.5959 36.4308 35.8544 37.0939 31.0826L39.7167 14.6112C40.5562 9.05094 41.3953 3.90998 41.5001 2.44126C41.8151 -1.12626 38.0381 0.342462 38.0381 0.342462Z" fill="#1B92D1"/>
</svg>
