<svg width="38" height="41" viewBox="0 0 38 41" fill="none" xmlns="http://www.w3.org/2000/svg">
<path d="M18.9422 0H18.9322C8.49082 0 0 8.99111 0 20.0476C0 24.433 1.33487 28.498 3.605 31.7981L1.24527 39.2451L8.52447 36.782C11.5186 38.8821 15.0906 40.0951 18.9422 40.0951C29.3836 40.0951 37.8744 31.1011 37.8744 20.0475C37.8744 8.9938 29.3835 0 18.9422 0Z" fill="#5ACF5F"/>
<path d="M29.9609 28.3092C29.5039 29.6754 27.6907 30.8077 26.2446 31.139C25.2547 31.3616 23.9625 31.5399 19.6121 29.6302C14.0465 27.1895 10.4627 21.2027 10.1837 20.8143C9.91584 20.4257 7.93477 17.6446 7.93477 14.7673C7.93477 11.8906 9.31464 10.4895 9.87116 9.88863C10.3276 9.3945 11.0829 9.16943 11.8072 9.16943C12.0417 9.16943 12.2522 9.18167 12.4419 9.19181C12.9981 9.21711 13.2772 9.25189 13.6444 10.1817C14.1013 11.3471 15.2135 14.2238 15.3464 14.5197C15.4814 14.8155 15.616 15.2161 15.4268 15.6044C15.249 16.0056 15.093 16.1834 14.8136 16.5241C14.5342 16.8654 14.2688 17.1259 13.9897 17.4914C13.7343 17.8096 13.4454 18.1506 13.7674 18.7396C14.0893 19.316 15.2016 21.2376 16.8395 22.7813C18.9539 24.7735 20.6673 25.4101 21.2806 25.6809C21.7374 25.8816 22.2818 25.8336 22.6152 25.4578C23.0391 24.974 23.5627 24.1722 24.095 23.3831C24.4737 22.8167 24.9518 22.7464 25.4537 22.9467C25.9649 23.1348 28.6705 24.5508 29.2269 24.8439C29.7829 25.1396 30.1503 25.2799 30.2852 25.5281C30.4177 25.7757 30.4177 26.9413 29.9609 28.3092Z" fill="#FCFCFC"/>
</svg>
